<svg width="353" height="708" viewBox="0 0 353 708" fill="none" xmlns="http://www.w3.org/2000/svg">
<path d="M175.299 276.31C252.373 276.31 314.829 338.792 314.829 415.84C314.829 428.331 308.938 447.543 297.637 472.15C286.594 496.194 271.33 523.443 254.596 551.31C239.476 576.49 223.341 601.873 208.268 625.587C206.678 628.088 205.099 630.571 203.535 633.033C193.302 649.143 183.623 664.449 175.314 678.157C167.262 664.813 157.822 649.742 147.794 633.782C146.577 631.845 145.351 629.895 144.116 627.93C128.806 603.575 112.215 577.181 96.6466 551.029C79.8003 522.731 64.3598 495.062 53.1698 470.921C41.6681 446.107 35.7689 427.284 35.7689 415.84C35.7689 338.794 98.2532 276.31 175.299 276.31ZM259.369 410.02C259.369 363.703 221.63 325.97 175.299 325.97C128.993 325.97 91.2589 363.707 91.2589 410.02C91.2589 456.324 128.995 494.06 175.299 494.06C221.629 494.06 259.369 456.328 259.369 410.02Z" fill="#E74C3C" stroke="#35488A" stroke-width="30"/>
<path d="M144 651L144 456H206L206 651H144Z" fill="#35488A"/>
<path d="M330.562 464.517H22.0361V410.512C22.0361 376.868 34.1919 344.488 56.0284 319.967C77.8649 295.447 107.74 280.628 139.57 278.529H213.028C244.858 280.628 274.733 295.447 296.57 319.967C318.406 344.488 330.562 376.868 330.562 410.512V464.517Z" fill="#9DB142"/>
<path d="M330.562 441.268H22.0357C13.9217 441.268 7.34399 448.207 7.34399 456.767C7.34399 465.327 13.9217 472.266 22.0357 472.266H330.562C338.676 472.266 345.253 465.327 345.253 456.767C345.253 448.207 338.676 441.268 330.562 441.268Z" fill="#C0D563"/>
<path d="M139.569 239.782H213.028V317.277H139.569V239.782Z" fill="#EBBEAA"/>
<path d="M102.84 115.791H249.758V185.536C249.758 206.089 242.018 225.8 228.242 240.333C214.466 254.866 195.781 263.03 176.299 263.03C156.817 263.03 138.132 254.866 124.356 240.333C110.58 225.8 102.84 206.089 102.84 185.536V115.791Z" fill="#F1C8B4"/>
<path d="M95.4945 146.789H102.84V193.285H95.4945C89.6498 193.285 84.0444 190.836 79.9116 186.476C75.7787 182.116 73.4569 176.203 73.4569 170.037C73.4569 163.871 75.7787 157.958 79.9116 153.598C84.0444 149.238 89.6498 146.789 95.4945 146.789Z" fill="#EBBEAA"/>
<path d="M249.757 146.789H257.103C262.948 146.789 268.553 149.238 272.686 153.598C276.819 157.958 279.141 163.871 279.141 170.037C279.141 176.203 276.819 182.116 272.686 186.476C268.553 190.836 262.948 193.285 257.103 193.285H249.757V146.789Z" fill="#EBBEAA"/>
<path d="M286.487 363.774V472.266H66.111V363.774" fill="#9DB142"/>
<path d="M95.4944 379.273H132.224V441.268H95.4944V379.273Z" fill="#C0D563"/>
<path d="M220.374 379.273H257.103V441.268H220.374V379.273Z" fill="#C0D563"/>
<path d="M176.299 309.527L146.916 348.275L110.186 278.53L139.57 263.031L176.299 309.527Z" fill="#C0D563"/>
<path d="M176.299 309.527L205.682 348.275L242.412 278.53L213.028 263.031L176.299 309.527Z" fill="#C0D563"/>
<path d="M80.8028 115.791H279.141C282.035 105.614 283.001 94.9355 281.983 84.365C280.966 73.7945 277.984 63.5389 273.209 54.184C268.434 44.8291 261.959 36.5579 254.154 29.8429C246.349 23.1279 237.367 18.1005 227.72 15.0477C204.74 7.77497 180.522 5.94271 156.794 9.68169C133.065 13.4207 110.412 22.6387 90.4494 36.678L52.9855 63.0262C50.2441 64.9538 47.9964 67.5656 46.4417 70.6298C44.887 73.6939 44.0735 77.1156 44.0735 80.5911C44.0735 84.2362 44.9683 87.8192 46.6706 90.9911C48.373 94.1631 50.8249 96.816 53.7877 98.6916L80.8028 115.791Z" fill="#F3F3F3"/>
<path d="M205.682 92.5424C199.06 89.0494 193.491 83.6801 189.599 77.0362C185.707 70.3922 183.645 62.7361 183.645 54.9257V38.2961L205.682 34.4214L227.72 38.2961V54.9257C227.72 62.7361 225.658 70.3922 221.766 77.0362C217.874 83.6801 212.304 89.0494 205.682 92.5424V92.5424Z" fill="#FAD23C"/>
<path d="M337.908 434.947V410.512C337.803 381.656 329.277 353.533 313.49 329.967C297.703 306.402 275.42 288.536 249.67 278.799C249.728 277.937 249.647 277.07 249.431 276.236C249.137 275.238 248.654 274.313 248.013 273.516C247.371 272.718 246.584 272.066 245.697 271.598L220.374 258.24V256.89C229.536 250.583 237.39 242.381 243.462 232.781C249.534 223.18 253.697 212.381 255.7 201.035H257.103C263.131 201.063 269.02 199.126 273.965 195.489C278.909 191.852 282.668 186.692 284.727 180.716C286.786 174.739 287.045 168.238 285.469 162.1C283.892 155.962 280.556 150.488 275.918 146.427C279.398 138.975 281.577 130.923 282.351 122.656C283.258 122.203 284.066 121.556 284.725 120.758C285.383 119.959 285.878 119.026 286.178 118.016C292.555 95.4949 290.205 71.2253 279.642 50.5304C269.08 29.8354 251.168 14.405 229.836 7.6237C205.823 -0.00962877 180.507 -1.94145 155.703 1.96684C130.899 5.87513 107.223 15.5266 86.3732 30.2289L48.9093 56.5771C45.0705 59.2772 41.9414 62.9577 39.813 67.2762C37.6847 71.5947 36.6263 76.4109 36.7362 81.2769C36.8462 86.1428 38.121 90.9004 40.4419 95.107C42.7629 99.3136 46.0547 102.833 50.0112 105.337L69.9309 117.945C70.2238 127.839 72.5256 137.552 76.681 146.427C72.0432 150.488 68.7078 155.962 67.131 162.1C65.5542 168.237 65.813 174.739 67.872 180.715C69.9309 186.691 73.6896 191.851 78.6339 195.488C83.5782 199.125 89.4669 201.062 95.4945 201.035H96.8983C98.901 212.381 103.064 223.18 109.136 232.781C115.208 242.381 123.062 250.583 132.224 256.89V258.24L106.9 271.598C106.014 272.066 105.227 272.718 104.585 273.516C103.944 274.313 103.461 275.238 103.167 276.236C102.951 277.07 102.87 277.937 102.928 278.799C77.1781 288.536 54.8952 306.402 39.108 329.967C23.3208 353.533 14.7952 381.656 14.6901 410.512V434.947C9.79079 436.765 5.65971 440.353 3.02902 445.077C0.398323 449.801 -0.562092 455.355 0.317993 460.755C1.19808 466.154 3.86182 471.051 7.83712 474.576C11.8124 478.102 16.8425 480.029 22.0359 480.016H330.562C335.755 480.029 340.786 478.102 344.761 474.576C348.736 471.051 351.4 466.154 352.28 460.755C353.16 455.355 352.2 449.801 349.569 445.077C346.938 440.353 342.807 436.765 337.908 434.947ZM323.216 410.512V433.519H293.833V387.022C293.833 384.967 293.059 382.996 291.681 381.542C290.304 380.089 288.435 379.272 286.487 379.272C284.539 379.272 282.67 380.089 281.293 381.542C279.915 382.996 279.141 384.967 279.141 387.022V464.517H183.645V331.621L199.947 353.118C200.635 354.025 201.508 354.757 202.501 355.26C203.494 355.763 204.581 356.024 205.682 356.024C205.887 356.025 206.092 356.015 206.296 355.994C207.498 355.89 208.657 355.474 209.67 354.784C210.683 354.094 211.519 353.15 212.103 352.036L243.263 292.866C266.52 301.29 286.713 317.143 301.041 338.225C315.368 359.307 323.119 384.572 323.216 410.512ZM176.299 297.419L152.191 266.9C167.889 272.073 184.709 272.073 200.407 266.9L176.299 297.419ZM204.58 334.41L185.787 309.627L214.95 272.71L232.268 281.844L204.58 334.41ZM257.103 185.536V154.538C261 154.538 264.737 156.171 267.492 159.078C270.247 161.984 271.795 165.926 271.795 170.037C271.795 174.148 270.247 178.09 267.492 180.996C264.737 183.903 261 185.536 257.103 185.536ZM257.103 139.039V123.54H267.583C266.78 129.142 265.145 134.575 262.739 139.64C260.883 139.249 258.996 139.047 257.103 139.039ZM51.4194 80.5927C51.4161 78.3925 51.9294 76.2257 52.9133 74.2858C53.8972 72.3459 55.3212 70.6932 57.058 69.4753L94.5219 43.1271C113.571 29.6883 135.205 20.8665 157.869 17.2952C180.534 13.7239 203.667 15.4917 225.607 22.4717C242.316 27.7828 256.517 39.5357 265.384 55.3917C274.251 71.2477 277.134 90.0444 273.46 108.041H82.8347L57.5649 92.0502C55.695 90.8569 54.1475 89.1762 53.0712 87.1696C51.9949 85.1631 51.4261 82.8982 51.4194 80.5927ZM85.0149 123.54H95.4945V139.039C93.6019 139.047 91.7146 139.249 89.8588 139.64C87.4528 134.575 85.8182 129.142 85.0149 123.54ZM80.8028 170.037C80.8073 165.928 82.3566 161.988 85.1108 159.083C87.8651 156.177 91.5994 154.543 95.4945 154.538V185.536C91.5994 185.531 87.8651 183.897 85.1108 180.991C82.3566 178.086 80.8073 174.146 80.8028 170.037ZM110.186 185.536V123.54H242.412V185.536C242.412 204.033 235.446 221.773 223.048 234.853C210.649 247.933 193.833 255.281 176.299 255.281C158.765 255.281 141.949 247.933 129.55 234.853C117.152 221.773 110.186 204.033 110.186 185.536ZM137.651 272.71L166.814 309.627L148.017 334.41L120.33 281.844L137.651 272.71ZM14.6901 456.767C14.6918 454.712 15.4663 452.742 16.8436 451.289C18.2208 449.837 20.0882 449.019 22.0359 449.018H58.7652V464.517H22.0359C20.0882 464.515 18.2208 463.698 16.8436 462.245C15.4663 460.792 14.6918 458.822 14.6901 456.767ZM73.4569 387.022C73.4569 384.967 72.683 382.996 71.3054 381.542C69.9278 380.089 68.0593 379.272 66.1111 379.272C64.1628 379.272 62.2944 380.089 60.9168 381.542C59.5392 382.996 58.7652 384.967 58.7652 387.022V433.519H29.3818V410.512C29.4794 384.572 37.2298 359.307 51.5572 338.225C65.8847 317.143 86.0783 301.29 109.335 292.866L140.495 352.037C141.079 353.15 141.914 354.093 142.926 354.784C143.939 355.474 145.097 355.89 146.298 355.995C146.504 356.016 146.709 356.026 146.916 356.024C148.017 356.024 149.104 355.763 150.097 355.26C151.09 354.757 151.963 354.025 152.651 353.118L168.953 331.621V464.517H73.4569V387.022ZM330.562 464.517H293.833V449.018H330.562C332.51 449.018 334.379 449.834 335.756 451.287C337.134 452.741 337.908 454.712 337.908 456.767C337.908 458.822 337.134 460.794 335.756 462.247C334.379 463.7 332.51 464.517 330.562 464.517Z" fill="black"/>
<path d="M139.57 162.288C143.627 162.288 146.916 158.818 146.916 154.538C146.916 150.258 143.627 146.789 139.57 146.789C135.513 146.789 132.224 150.258 132.224 154.538C132.224 158.818 135.513 162.288 139.57 162.288Z" fill="black"/>
<path d="M213.028 162.288C217.085 162.288 220.374 158.818 220.374 154.538C220.374 150.258 217.085 146.789 213.028 146.789C208.971 146.789 205.682 150.258 205.682 154.538C205.682 158.818 208.971 162.288 213.028 162.288Z" fill="black"/>
<path d="M132.224 371.523H95.4945C93.5463 371.523 91.6778 372.339 90.3002 373.793C88.9226 375.246 88.1487 377.217 88.1487 379.272V441.268C88.1487 443.323 88.9226 445.295 90.3002 446.748C91.6778 448.201 93.5463 449.018 95.4945 449.018H132.224C134.172 449.018 136.041 448.201 137.418 446.748C138.796 445.295 139.57 443.323 139.57 441.268V379.272C139.57 377.217 138.796 375.246 137.418 373.793C136.041 372.339 134.172 371.523 132.224 371.523ZM124.878 433.519H102.84V387.022H124.878V433.519Z" fill="black"/>
<path d="M220.374 371.523C218.426 371.523 216.557 372.339 215.18 373.793C213.802 375.246 213.028 377.217 213.028 379.272V441.268C213.028 443.323 213.802 445.295 215.18 446.748C216.557 448.201 218.426 449.018 220.374 449.018H257.103C259.052 449.018 260.92 448.201 262.298 446.748C263.675 445.295 264.449 443.323 264.449 441.268V379.272C264.449 377.217 263.675 375.246 262.298 373.793C260.92 372.339 259.052 371.523 257.103 371.523H220.374ZM249.758 433.519H227.72V387.022H249.758V433.519Z" fill="black"/>
<path d="M202.397 99.4742C203.417 100.012 204.542 100.292 205.683 100.292C206.823 100.292 207.948 100.012 208.968 99.4742C216.83 95.362 223.441 89.0085 228.054 81.134C232.667 73.2595 235.096 64.1792 235.066 54.9225V38.2961C235.067 36.4617 234.45 34.6867 233.327 33.287C232.203 31.8873 230.644 30.9538 228.929 30.6528L206.892 26.778C206.091 26.6417 205.274 26.6417 204.473 26.778L182.436 30.6528C180.721 30.9538 179.162 31.8873 178.039 33.287C176.915 34.6867 176.298 36.4617 176.299 38.2961V54.9225C176.269 64.1792 178.698 73.2595 183.311 81.134C187.924 89.0085 194.536 95.362 202.397 99.4742V99.4742ZM190.991 44.8575L205.683 42.277L220.374 44.8575V54.9225C220.394 60.6216 219.06 66.2351 216.493 71.25C213.927 76.2649 210.21 80.5214 205.683 83.6304C201.155 80.5217 197.439 76.2657 194.872 71.2514C192.306 66.237 190.971 60.6242 190.991 54.9256V44.8575Z" fill="black"/>
<path d="M176.299 201.035C178.247 201.035 180.116 200.218 181.493 198.765C182.871 197.312 183.645 195.341 183.645 193.285V177.786C183.645 175.731 182.871 173.76 181.493 172.307C180.116 170.853 178.247 170.037 176.299 170.037C174.351 170.037 172.482 170.853 171.105 172.307C169.727 173.76 168.953 175.731 168.953 177.786V193.285C168.953 195.341 169.727 197.312 171.105 198.765C172.482 200.218 174.351 201.035 176.299 201.035Z" fill="black"/>
<path d="M161 224.346C161 226.294 161.816 228.163 163.27 229.54C164.723 230.918 166.694 231.692 168.749 231.692H184.248C186.304 231.692 188.275 230.918 189.728 229.54C191.181 228.163 191.998 226.294 191.998 224.346C191.998 222.398 191.181 220.529 189.728 219.152C188.275 217.774 186.304 217 184.248 217H168.749C166.694 217 164.723 217.774 163.27 219.152C161.816 220.529 161 222.398 161 224.346Z" fill="black"/>
<rect x="263" y="300" width="16" height="148" fill="#35488A"/>
<rect x="273" y="300" width="7" height="148" fill="#E74C3C"/>
<rect x="259" y="301" width="7" height="148" fill="#E74C3C"/>
<path d="M239.98 334.808C246.34 336.991 253.222 336.804 259.113 334.288C265.003 331.773 269.419 327.135 271.39 321.394L286.247 278.106C288.218 272.365 287.581 265.993 284.477 260.39C281.373 254.787 276.056 250.414 269.696 248.231C263.336 246.048 256.454 246.235 250.563 248.75C244.673 251.266 240.257 255.904 238.287 261.644L223.429 304.933C221.459 310.673 222.096 317.046 225.2 322.648C228.304 328.251 233.62 332.625 239.98 334.808Z" fill="#35488A"/>
<path d="M282.728 287.733L272.548 307.715L224 282.982L234.18 263L282.728 287.733Z" fill="#C0D563"/>
<path d="M11 458C11 452.477 15.4772 448 21 448H331C336.523 448 341 452.477 341 458V458C341 463.523 336.523 468 331 468H21C15.4771 468 11 463.523 11 458V458Z" fill="white"/>
<path d="M304.499 473.845C306.447 473.845 308.316 473.028 309.693 471.575C311.071 470.122 311.845 468.151 311.845 466.095V450.596C311.845 448.541 311.071 446.57 309.693 445.117C308.316 443.663 306.447 442.847 304.499 442.847C302.551 442.847 300.682 443.663 299.305 445.117C297.927 446.57 297.153 448.541 297.153 450.596V466.095C297.153 468.151 297.927 470.122 299.305 471.575C300.682 473.028 302.551 473.845 304.499 473.845Z" fill="black"/>
<path d="M261.499 473.845C263.447 473.845 265.316 473.028 266.693 471.575C268.071 470.122 268.845 468.151 268.845 466.095V450.596C268.845 448.541 268.071 446.57 266.693 445.117C265.316 443.663 263.447 442.847 261.499 442.847C259.551 442.847 257.682 443.663 256.305 445.117C254.927 446.57 254.153 448.541 254.153 450.596V466.095C254.153 468.151 254.927 470.122 256.305 471.575C257.682 473.028 259.551 473.845 261.499 473.845Z" fill="black"/>
<path d="M218.499 473.845C220.447 473.845 222.316 473.028 223.693 471.575C225.071 470.122 225.845 468.151 225.845 466.095V450.596C225.845 448.541 225.071 446.57 223.693 445.117C222.316 443.663 220.447 442.847 218.499 442.847C216.551 442.847 214.682 443.663 213.305 445.117C211.927 446.57 211.153 448.541 211.153 450.596V466.095C211.153 468.151 211.927 470.122 213.305 471.575C214.682 473.028 216.551 473.845 218.499 473.845Z" fill="black"/>
<path d="M175.499 473.845C177.447 473.845 179.316 473.028 180.693 471.575C182.071 470.122 182.845 468.151 182.845 466.095V450.596C182.845 448.541 182.071 446.57 180.693 445.117C179.316 443.663 177.447 442.847 175.499 442.847C173.551 442.847 171.682 443.663 170.305 445.117C168.927 446.57 168.153 448.541 168.153 450.596V466.095C168.153 468.151 168.927 470.122 170.305 471.575C171.682 473.028 173.551 473.845 175.499 473.845Z" fill="black"/>
<path d="M132.499 473.845C134.447 473.845 136.316 473.028 137.693 471.575C139.071 470.122 139.845 468.151 139.845 466.095V450.596C139.845 448.541 139.071 446.57 137.693 445.117C136.316 443.663 134.447 442.847 132.499 442.847C130.551 442.847 128.682 443.663 127.305 445.117C125.927 446.57 125.153 448.541 125.153 450.596V466.095C125.153 468.151 125.927 470.122 127.305 471.575C128.682 473.028 130.551 473.845 132.499 473.845Z" fill="black"/>
<path d="M89.4989 473.845C91.4472 473.845 93.3156 473.028 94.6932 471.575C96.0708 470.122 96.8448 468.151 96.8448 466.095V450.596C96.8448 448.541 96.0708 446.57 94.6932 445.117C93.3156 443.663 91.4472 442.847 89.4989 442.847C87.5507 442.847 85.6822 443.663 84.3046 445.117C82.927 446.57 82.1531 448.541 82.1531 450.596V466.095C82.1531 468.151 82.927 470.122 84.3046 471.575C85.6822 473.028 87.5507 473.845 89.4989 473.845Z" fill="black"/>
<path d="M46.4989 473.845C48.4472 473.845 50.3156 473.028 51.6932 471.575C53.0708 470.122 53.8448 468.151 53.8448 466.095V450.596C53.8448 448.541 53.0708 446.57 51.6932 445.117C50.3156 443.663 48.4472 442.847 46.4989 442.847C44.5507 442.847 42.6822 443.663 41.3046 445.117C39.927 446.57 39.1531 448.541 39.1531 450.596V466.095C39.1531 468.151 39.927 470.122 41.3046 471.575C42.6822 473.028 44.5507 473.845 46.4989 473.845Z" fill="black"/>
</svg>
