<svg width="571" height="697" viewBox="0 0 571 697" fill="none" xmlns="http://www.w3.org/2000/svg">
<path d="M285.5 696.076C277.773 696.076 270.715 691.711 267.258 684.802L204.529 559.343C83.6373 523.703 0 412.424 0 285.5C0 128.077 128.077 0 285.5 0C442.923 0 571 128.077 571 285.5C571 412.43 487.363 523.709 366.466 559.348L303.737 684.802C300.285 691.711 293.222 696.076 285.5 696.076Z" fill="#FF415B"/>
<path d="M285.5 0C285.442 0 285.388 0.00531064 285.33 0.00531064V696.071C285.388 696.071 285.442 696.076 285.5 696.076C293.222 696.076 300.285 691.711 303.737 684.802L366.466 559.348C487.363 523.709 571 412.43 571 285.5C571 128.077 442.923 0 285.5 0V0Z" fill="#B20042"/>
<path d="M285.5 360.274C251.252 360.274 219.16 459.604 191.693 443.205C137.997 411.144 101.964 352.451 101.964 285.5C101.964 184.3 184.301 101.964 285.5 101.964C386.7 101.964 469.036 184.3 469.036 285.5C469.036 354.135 431.166 414.087 375.229 445.568C348.686 460.507 318.07 360.274 285.5 360.274Z" fill="#F3EEE9"/>
<path d="M285.5 101.964C285.442 101.964 285.388 101.97 285.33 101.97V360.284C285.388 360.284 285.442 360.274 285.5 360.274C318.07 360.274 348.686 460.507 375.229 445.568C431.166 414.087 469.036 354.135 469.036 285.5C469.036 184.3 386.7 101.964 285.5 101.964V101.964Z" fill="#E9DFDA"/>
<path d="M285.5 285.5C251.767 285.5 224.321 258.055 224.321 224.321C224.321 190.588 251.767 163.143 285.5 163.143C319.233 163.143 346.678 190.588 346.678 224.321C346.678 258.055 319.233 285.5 285.5 285.5Z" fill="#FDD1A3"/>
<path d="M284.496 326.291C228.363 326.833 183.536 373.412 183.536 429.551C183.536 434.979 186.387 440.002 191.04 442.801C218.65 459.45 250.975 469.036 285.5 469.036C320.024 469.036 352.35 459.45 379.96 442.801C384.612 440.002 387.464 434.979 387.464 429.551V428.25C387.464 371.692 341.177 325.744 284.496 326.291V326.291Z" fill="#9DB142"/>
<path d="M285.5 163.143C285.442 163.143 285.388 163.148 285.33 163.148V285.495C285.388 285.495 285.442 285.5 285.5 285.5C319.233 285.5 346.679 258.055 346.679 224.321C346.679 190.588 319.233 163.143 285.5 163.143Z" fill="#FFBB85"/>
<path d="M285.33 326.302V469.03C285.388 469.03 285.442 469.036 285.5 469.036C320.024 469.036 352.35 459.445 379.96 442.801C384.612 440.002 387.464 434.979 387.464 429.551V428.25C387.464 371.973 341.628 326.211 285.33 326.302V326.302Z" fill="#849537"/>
</svg>
