<svg width="571" height="827" viewBox="0 0 571 827" fill="none" xmlns="http://www.w3.org/2000/svg">
<path d="M285.5 826.076C277.773 826.076 270.715 821.711 267.258 814.802L204.529 689.343C83.6373 653.703 0 542.424 0 415.5C0 258.077 128.077 130 285.5 130C442.923 130 571 258.077 571 415.5C571 542.43 487.363 653.709 366.466 689.348L303.737 814.802C300.285 821.711 293.222 826.076 285.5 826.076Z" fill="#FF415B"/>
<path d="M285.5 130C285.442 130 285.388 130.005 285.33 130.005V826.071C285.388 826.071 285.442 826.076 285.5 826.076C293.222 826.076 300.285 821.711 303.737 814.802L366.466 689.348C487.363 653.709 571 542.43 571 415.5C571 258.077 442.923 130 285.5 130V130Z" fill="#B20042"/>
<path d="M285.5 490.274C251.252 490.274 219.16 589.604 191.693 573.205C137.997 541.144 101.964 482.451 101.964 415.5C101.964 314.3 184.301 231.964 285.5 231.964C386.7 231.964 469.036 314.3 469.036 415.5C469.036 484.135 431.166 544.087 375.229 575.568C348.686 590.507 318.07 490.274 285.5 490.274Z" fill="#F3EEE9"/>
<path d="M285.5 231.964C285.442 231.964 285.388 231.97 285.33 231.97V490.284C285.388 490.284 285.442 490.274 285.5 490.274C318.07 490.274 348.686 590.507 375.229 575.568C431.166 544.087 469.036 484.135 469.036 415.5C469.036 314.3 386.7 231.964 285.5 231.964V231.964Z" fill="#E9DFDA"/>
<path d="M285.5 415.5C251.767 415.5 224.321 388.055 224.321 354.321C224.321 320.588 251.767 293.143 285.5 293.143C319.233 293.143 346.678 320.588 346.678 354.321C346.678 388.055 319.233 415.5 285.5 415.5Z" fill="#FDD1A3"/>
<path d="M284.496 456.291C228.363 456.833 183.536 503.412 183.536 559.551C183.536 564.979 186.387 570.002 191.04 572.801C218.65 589.45 250.975 599.036 285.5 599.036C320.024 599.036 352.35 589.45 379.96 572.801C384.612 570.002 387.464 564.979 387.464 559.551V558.25C387.464 501.692 341.177 455.744 284.496 456.291V456.291Z" fill="#9DB142"/>
<path d="M285.5 293.143C285.442 293.143 285.388 293.148 285.33 293.148V415.495C285.388 415.495 285.442 415.5 285.5 415.5C319.233 415.5 346.679 388.055 346.679 354.321C346.679 320.588 319.233 293.143 285.5 293.143Z" fill="#FFBB85"/>
<path d="M285.33 456.302V599.03C285.388 599.03 285.442 599.036 285.5 599.036C320.024 599.036 352.35 589.445 379.96 572.801C384.612 570.002 387.464 564.979 387.464 559.551V558.25C387.464 501.973 341.628 456.211 285.33 456.302V456.302Z" fill="#849537"/>
<path d="M370.53 85.7143H311.286V26.4696C311.286 11.9143 299.061 0 284.5 0C269.939 0 257.714 11.9143 257.714 26.4696V85.7143H198.47C183.914 85.7143 172 97.9393 172 112.5C172 127.061 183.914 139.286 198.47 139.286H257.714V198.53C257.714 213.086 269.939 225 284.5 225C299.061 225 311.286 213.086 311.286 198.53V139.286H370.53C385.086 139.286 397 127.061 397 112.5C397 97.9393 385.086 85.7143 370.53 85.7143Z" fill="#47B84C"/>
</svg>
