<svg width="353" height="888" viewBox="0 0 353 888" fill="none" xmlns="http://www.w3.org/2000/svg">
<path d="M330.562 646.517H22.0361V592.512C22.0361 558.868 34.1919 526.488 56.0284 501.967C77.8649 477.447 107.74 462.628 139.57 460.529H213.028C244.858 462.628 274.733 477.447 296.57 501.967C318.406 526.488 330.562 558.868 330.562 592.512V646.517Z" fill="#9DB142"/>
<path d="M330.562 623.268H22.0357C13.9217 623.268 7.34399 630.207 7.34399 638.767C7.34399 647.327 13.9217 654.266 22.0357 654.266H330.562C338.676 654.266 345.253 647.327 345.253 638.767C345.253 630.207 338.676 623.268 330.562 623.268Z" fill="#C0D563"/>
<path d="M139.569 421.782H213.028V499.277H139.569V421.782Z" fill="#EBBEAA"/>
<path d="M102.84 297.791H249.758V367.536C249.758 388.089 242.018 407.8 228.242 422.333C214.466 436.866 195.781 445.03 176.299 445.03C156.816 445.03 138.132 436.866 124.356 422.333C110.58 407.8 102.84 388.089 102.84 367.536V297.791Z" fill="#F1C8B4"/>
<path d="M95.4946 328.789H102.84V375.285H95.4946C89.6499 375.285 84.0445 372.836 79.9117 368.476C75.7788 364.116 73.457 358.203 73.457 352.037C73.457 345.871 75.7788 339.958 79.9117 335.598C84.0445 331.238 89.6499 328.789 95.4946 328.789Z" fill="#EBBEAA"/>
<path d="M249.757 328.789H257.103C262.948 328.789 268.553 331.238 272.686 335.598C276.819 339.958 279.141 345.871 279.141 352.037C279.141 358.203 276.819 364.116 272.686 368.476C268.553 372.836 262.948 375.285 257.103 375.285H249.757V328.789Z" fill="#EBBEAA"/>
<path d="M286.487 545.774V654.266H66.1108V545.774" fill="#9DB142"/>
<path d="M95.4944 561.273H132.224V623.268H95.4944V561.273Z" fill="#C0D563"/>
<path d="M220.374 561.273H257.103V623.268H220.374V561.273Z" fill="#C0D563"/>
<path d="M176.299 491.527L146.916 530.275L110.186 460.53L139.57 445.031L176.299 491.527Z" fill="#C0D563"/>
<path d="M176.299 491.527L205.682 530.275L242.412 460.53L213.028 445.031L176.299 491.527Z" fill="#C0D563"/>
<path d="M80.8028 297.791H279.141C282.035 287.614 283.001 276.936 281.983 266.365C280.966 255.794 277.984 245.539 273.209 236.184C268.434 226.829 261.959 218.558 254.154 211.843C246.349 205.128 237.367 200.1 227.72 197.048C204.74 189.775 180.522 187.943 156.794 191.682C133.065 195.421 110.412 204.639 90.4494 218.678L52.9855 245.026C50.2441 246.954 47.9964 249.566 46.4417 252.63C44.887 255.694 44.0735 259.116 44.0735 262.591C44.0735 266.236 44.9683 269.819 46.6706 272.991C48.373 276.163 50.8249 278.816 53.7877 280.692L80.8028 297.791Z" fill="#F3F3F3"/>
<path d="M205.683 274.542C199.061 271.049 193.491 265.68 189.599 259.036C185.707 252.392 183.645 244.736 183.645 236.926V220.296L205.683 216.421L227.72 220.296V236.926C227.72 244.736 225.658 252.392 221.766 259.036C217.874 265.68 212.305 271.049 205.683 274.542V274.542Z" fill="#FAD23C"/>
<path d="M337.908 616.947V592.512C337.803 563.656 329.277 535.533 313.49 511.967C297.703 488.402 275.42 470.536 249.67 460.799C249.728 459.937 249.647 459.07 249.431 458.236C249.137 457.238 248.654 456.313 248.013 455.516C247.371 454.718 246.584 454.066 245.697 453.598L220.374 440.24V438.89C229.536 432.583 237.39 424.381 243.462 414.781C249.534 405.18 253.697 394.381 255.7 383.035H257.103C263.131 383.063 269.02 381.126 273.965 377.489C278.909 373.852 282.668 368.692 284.727 362.716C286.786 356.739 287.045 350.238 285.469 344.1C283.892 337.962 280.556 332.488 275.918 328.427C279.398 320.975 281.577 312.923 282.351 304.656C283.258 304.203 284.066 303.556 284.725 302.758C285.383 301.959 285.878 301.026 286.178 300.016C292.555 277.495 290.205 253.225 279.642 232.53C269.08 211.835 251.168 196.405 229.836 189.624C205.823 181.99 180.507 180.059 155.703 183.967C130.899 187.875 107.223 197.527 86.3732 212.229L48.9093 238.577C45.0705 241.277 41.9414 244.958 39.813 249.276C37.6847 253.595 36.6263 258.411 36.7362 263.277C36.8462 268.143 38.121 272.9 40.4419 277.107C42.7629 281.314 46.0547 284.833 50.0112 287.337L69.9309 299.945C70.2238 309.839 72.5256 319.552 76.681 328.427C72.0432 332.488 68.7078 337.962 67.131 344.1C65.5542 350.237 65.813 356.739 67.872 362.715C69.9309 368.691 73.6896 373.851 78.6339 377.488C83.5782 381.125 89.4669 383.062 95.4945 383.035H96.8983C98.901 394.381 103.064 405.18 109.136 414.781C115.208 424.381 123.062 432.583 132.224 438.89V440.24L106.9 453.598C106.014 454.066 105.227 454.718 104.585 455.516C103.944 456.313 103.461 457.238 103.167 458.236C102.951 459.07 102.87 459.937 102.928 460.799C77.1781 470.536 54.8952 488.402 39.108 511.967C23.3208 535.533 14.7952 563.656 14.6901 592.512V616.947C9.79079 618.765 5.65971 622.353 3.02902 627.077C0.398323 631.801 -0.562092 637.355 0.317993 642.755C1.19808 648.154 3.86182 653.051 7.83712 656.576C11.8124 660.102 16.8425 662.029 22.0359 662.016H330.562C335.755 662.029 340.786 660.102 344.761 656.576C348.736 653.051 351.4 648.154 352.28 642.755C353.16 637.355 352.2 631.801 349.569 627.077C346.938 622.353 342.807 618.765 337.908 616.947ZM323.216 592.512V615.519H293.833V569.022C293.833 566.967 293.059 564.996 291.681 563.542C290.304 562.089 288.435 561.272 286.487 561.272C284.539 561.272 282.67 562.089 281.293 563.542C279.915 564.996 279.141 566.967 279.141 569.022V646.517H183.645V513.621L199.947 535.118C200.635 536.025 201.508 536.757 202.501 537.26C203.494 537.763 204.581 538.024 205.682 538.024C205.887 538.025 206.092 538.015 206.296 537.994C207.498 537.89 208.657 537.474 209.67 536.784C210.683 536.094 211.519 535.15 212.103 534.036L243.263 474.866C266.52 483.29 286.713 499.143 301.041 520.225C315.368 541.307 323.119 566.572 323.216 592.512ZM176.299 479.419L152.191 448.9C167.889 454.073 184.709 454.073 200.407 448.9L176.299 479.419ZM204.58 516.41L185.787 491.627L214.95 454.71L232.268 463.844L204.58 516.41ZM257.103 367.536V336.538C261 336.538 264.737 338.171 267.492 341.078C270.247 343.984 271.795 347.926 271.795 352.037C271.795 356.148 270.247 360.09 267.492 362.996C264.737 365.903 261 367.536 257.103 367.536ZM257.103 321.039V305.54H267.583C266.78 311.142 265.145 316.575 262.739 321.64C260.883 321.249 258.996 321.047 257.103 321.039ZM51.4194 262.593C51.4161 260.392 51.9294 258.226 52.9133 256.286C53.8972 254.346 55.3212 252.693 57.058 251.475L94.5219 225.127C113.571 211.688 135.205 202.867 157.869 199.295C180.534 195.724 203.667 197.492 225.607 204.472C242.316 209.783 256.517 221.536 265.384 237.392C274.251 253.248 277.134 272.044 273.46 290.041H82.8347L57.5649 274.05C55.695 272.857 54.1475 271.176 53.0712 269.17C51.9949 267.163 51.4261 264.898 51.4194 262.593ZM85.0149 305.54H95.4945V321.039C93.6019 321.047 91.7146 321.249 89.8588 321.64C87.4528 316.575 85.8182 311.142 85.0149 305.54ZM80.8028 352.037C80.8073 347.928 82.3566 343.988 85.1108 341.083C87.8651 338.177 91.5994 336.543 95.4945 336.538V367.536C91.5994 367.531 87.8651 365.897 85.1108 362.991C82.3566 360.086 80.8073 356.146 80.8028 352.037ZM110.186 367.536V305.54H242.412V367.536C242.412 386.033 235.446 403.773 223.048 416.853C210.649 429.933 193.833 437.281 176.299 437.281C158.765 437.281 141.949 429.933 129.55 416.853C117.152 403.773 110.186 386.033 110.186 367.536ZM137.651 454.71L166.814 491.627L148.017 516.41L120.33 463.844L137.651 454.71ZM14.6901 638.767C14.6918 636.712 15.4663 634.742 16.8436 633.289C18.2208 631.837 20.0882 631.019 22.0359 631.018H58.7652V646.517H22.0359C20.0882 646.515 18.2208 645.698 16.8436 644.245C15.4663 642.792 14.6918 640.822 14.6901 638.767ZM73.4569 569.022C73.4569 566.967 72.683 564.996 71.3054 563.542C69.9278 562.089 68.0593 561.272 66.1111 561.272C64.1628 561.272 62.2944 562.089 60.9168 563.542C59.5392 564.996 58.7652 566.967 58.7652 569.022V615.519H29.3818V592.512C29.4794 566.572 37.2298 541.307 51.5572 520.225C65.8847 499.143 86.0783 483.29 109.335 474.866L140.495 534.037C141.079 535.15 141.914 536.093 142.926 536.784C143.939 537.474 145.097 537.89 146.298 537.995C146.504 538.016 146.709 538.026 146.916 538.024C148.017 538.024 149.104 537.763 150.097 537.26C151.09 536.757 151.963 536.025 152.651 535.118L168.953 513.621V646.517H73.4569V569.022ZM330.562 646.517H293.833V631.018H330.562C332.51 631.018 334.379 631.834 335.756 633.287C337.134 634.741 337.908 636.712 337.908 638.767C337.908 640.822 337.134 642.794 335.756 644.247C334.379 645.7 332.51 646.517 330.562 646.517Z" fill="black"/>
<path d="M139.57 344.288C143.627 344.288 146.916 340.818 146.916 336.538C146.916 332.258 143.627 328.789 139.57 328.789C135.513 328.789 132.224 332.258 132.224 336.538C132.224 340.818 135.513 344.288 139.57 344.288Z" fill="black"/>
<path d="M213.028 344.288C217.085 344.288 220.374 340.818 220.374 336.538C220.374 332.258 217.085 328.789 213.028 328.789C208.971 328.789 205.682 332.258 205.682 336.538C205.682 340.818 208.971 344.288 213.028 344.288Z" fill="black"/>
<path d="M132.224 553.523H95.4945C93.5463 553.523 91.6778 554.339 90.3002 555.793C88.9226 557.246 88.1487 559.217 88.1487 561.272V623.268C88.1487 625.323 88.9226 627.295 90.3002 628.748C91.6778 630.201 93.5463 631.018 95.4945 631.018H132.224C134.172 631.018 136.041 630.201 137.418 628.748C138.796 627.295 139.57 625.323 139.57 623.268V561.272C139.57 559.217 138.796 557.246 137.418 555.793C136.041 554.339 134.172 553.523 132.224 553.523ZM124.878 615.519H102.84V569.022H124.878V615.519Z" fill="black"/>
<path d="M220.374 553.523C218.426 553.523 216.557 554.339 215.18 555.793C213.802 557.246 213.028 559.217 213.028 561.272V623.268C213.028 625.323 213.802 627.295 215.18 628.748C216.557 630.201 218.426 631.018 220.374 631.018H257.103C259.052 631.018 260.92 630.201 262.298 628.748C263.675 627.295 264.449 625.323 264.449 623.268V561.272C264.449 559.217 263.675 557.246 262.298 555.793C260.92 554.339 259.052 553.523 257.103 553.523H220.374ZM249.758 615.519H227.72V569.022H249.758V615.519Z" fill="black"/>
<path d="M202.397 281.474C203.417 282.012 204.542 282.292 205.683 282.292C206.823 282.292 207.948 282.012 208.968 281.474C216.83 277.362 223.441 271.008 228.054 263.134C232.667 255.26 235.096 246.179 235.066 236.923V220.296C235.067 218.462 234.45 216.687 233.327 215.287C232.203 213.887 230.644 212.954 228.929 212.653L206.892 208.778C206.091 208.642 205.274 208.642 204.473 208.778L182.436 212.653C180.721 212.954 179.162 213.887 178.039 215.287C176.915 216.687 176.298 218.462 176.299 220.296V236.923C176.269 246.179 178.698 255.26 183.311 263.134C187.924 271.008 194.536 277.362 202.397 281.474V281.474ZM190.991 226.858L205.683 224.277L220.374 226.858V236.923C220.394 242.622 219.06 248.235 216.493 253.25C213.927 258.265 210.21 262.521 205.683 265.63C201.155 262.522 197.439 258.266 194.872 253.251C192.306 248.237 190.971 242.624 190.991 236.926V226.858Z" fill="black"/>
<path d="M176.299 383.035C178.247 383.035 180.116 382.218 181.493 380.765C182.871 379.312 183.645 377.341 183.645 375.285V359.786C183.645 357.731 182.871 355.76 181.493 354.307C180.116 352.853 178.247 352.037 176.299 352.037C174.351 352.037 172.482 352.853 171.105 354.307C169.727 355.76 168.953 357.731 168.953 359.786V375.285C168.953 377.341 169.727 379.312 171.105 380.765C172.482 382.218 174.351 383.035 176.299 383.035Z" fill="black"/>
<path d="M161 406.346C161 408.294 161.816 410.163 163.27 411.54C164.723 412.918 166.694 413.692 168.749 413.692H184.248C186.304 413.692 188.275 412.918 189.728 411.54C191.181 410.163 191.998 408.294 191.998 406.346C191.998 404.398 191.181 402.529 189.728 401.152C188.275 399.774 186.304 399 184.248 399H168.749C166.694 399 164.723 399.774 163.27 401.152C161.816 402.529 161 404.398 161 406.346Z" fill="black"/>
<rect x="263" y="482" width="16" height="148" fill="#35488A"/>
<rect x="273" y="482" width="7" height="148" fill="#E74C3C"/>
<rect x="259" y="483" width="7" height="148" fill="#E74C3C"/>
<path d="M239.98 516.808C246.34 518.991 253.222 518.804 259.113 516.288C265.003 513.773 269.419 509.135 271.389 503.394L286.247 460.106C288.218 454.365 287.581 447.993 284.477 442.39C281.373 436.787 276.056 432.414 269.696 430.231C263.336 428.048 256.454 428.235 250.563 430.75C244.673 433.266 240.257 437.904 238.287 443.644L223.429 486.933C221.459 492.673 222.095 499.046 225.199 504.648C228.303 510.251 233.62 514.625 239.98 516.808Z" fill="#35488A"/>
<path d="M282.729 469.733L272.549 489.715L224 464.982L234.18 445L282.729 469.733Z" fill="#C0D563"/>
<g filter="url(#filter0_d_13_238)">
<path d="M261.53 105.714H202.286V46.4696C202.286 31.9143 190.061 20 175.5 20C160.939 20 148.714 31.9143 148.714 46.4696V105.714H89.4696C74.9143 105.714 63 117.939 63 132.5C63 147.061 74.9143 159.286 89.4696 159.286H148.714V218.53C148.714 233.086 160.939 245 175.5 245C190.061 245 202.286 233.086 202.286 218.53V159.286H261.53C276.086 159.286 288 147.061 288 132.5C288 117.939 276.086 105.714 261.53 105.714Z" fill="#00FF15"/>
</g>
<path d="M174 485.99L174 868.01" stroke="black" stroke-width="19"/>
<circle cx="174" cy="838" r="42.5" fill="#E74C3C" stroke="black" stroke-width="15"/>
<defs>
<filter id="filter0_d_13_238" x="33" y="0" width="285" height="285" filterUnits="userSpaceOnUse" color-interpolation-filters="sRGB">
<feFlood flood-opacity="0" result="BackgroundImageFix"/>
<feColorMatrix in="SourceAlpha" type="matrix" values="0 0 0 0 0 0 0 0 0 0 0 0 0 0 0 0 0 0 127 0" result="hardAlpha"/>
<feOffset dy="10"/>
<feGaussianBlur stdDeviation="15"/>
<feComposite in2="hardAlpha" operator="out"/>
<feColorMatrix type="matrix" values="0 0 0 0 0 0 0 0 0 0 0 0 0 0 0 0 0 0 0.5 0"/>
<feBlend mode="normal" in2="BackgroundImageFix" result="effect1_dropShadow_13_238"/>
<feBlend mode="normal" in="SourceGraphic" in2="effect1_dropShadow_13_238" result="shape"/>
</filter>
</defs>
</svg>
