<svg width="353" height="873" viewBox="0 0 353 873" fill="none" xmlns="http://www.w3.org/2000/svg">
<path d="M330.562 631.517H22.0361V577.512C22.0361 543.868 34.1919 511.488 56.0284 486.967C77.8649 462.447 107.74 447.628 139.57 445.529H213.028C244.858 447.628 274.733 462.447 296.57 486.967C318.406 511.488 330.562 543.868 330.562 577.512V631.517Z" fill="#9DB142"/>
<path d="M330.562 608.268H22.0357C13.9217 608.268 7.34399 615.207 7.34399 623.767C7.34399 632.327 13.9217 639.266 22.0357 639.266H330.562C338.676 639.266 345.253 632.327 345.253 623.767C345.253 615.207 338.676 608.268 330.562 608.268Z" fill="#C0D563"/>
<path d="M139.569 406.782H213.028V484.277H139.569V406.782Z" fill="#EBBEAA"/>
<path d="M102.84 282.791H249.758V352.536C249.758 373.089 242.018 392.8 228.242 407.333C214.466 421.866 195.781 430.03 176.299 430.03C156.816 430.03 138.132 421.866 124.356 407.333C110.58 392.8 102.84 373.089 102.84 352.536V282.791Z" fill="#F1C8B4"/>
<path d="M95.4946 313.789H102.84V360.285H95.4946C89.6499 360.285 84.0445 357.836 79.9117 353.476C75.7788 349.116 73.457 343.203 73.457 337.037C73.457 330.871 75.7788 324.958 79.9117 320.598C84.0445 316.238 89.6499 313.789 95.4946 313.789Z" fill="#EBBEAA"/>
<path d="M249.757 313.789H257.103C262.948 313.789 268.553 316.238 272.686 320.598C276.819 324.958 279.141 330.871 279.141 337.037C279.141 343.203 276.819 349.116 272.686 353.476C268.553 357.836 262.948 360.285 257.103 360.285H249.757V313.789Z" fill="#EBBEAA"/>
<path d="M286.487 530.774V639.266H66.1108V530.774" fill="#9DB142"/>
<path d="M95.4944 546.273H132.224V608.268H95.4944V546.273Z" fill="#C0D563"/>
<path d="M220.374 546.273H257.103V608.268H220.374V546.273Z" fill="#C0D563"/>
<path d="M176.299 476.527L146.916 515.275L110.186 445.53L139.57 430.031L176.299 476.527Z" fill="#C0D563"/>
<path d="M176.299 476.527L205.682 515.275L242.412 445.53L213.028 430.031L176.299 476.527Z" fill="#C0D563"/>
<path d="M80.8028 282.791H279.141C282.035 272.614 283.001 261.936 281.983 251.365C280.966 240.794 277.984 230.539 273.209 221.184C268.434 211.829 261.959 203.558 254.154 196.843C246.349 190.128 237.367 185.1 227.72 182.048C204.74 174.775 180.522 172.943 156.794 176.682C133.065 180.421 110.412 189.639 90.4494 203.678L52.9855 230.026C50.2441 231.954 47.9964 234.566 46.4417 237.63C44.887 240.694 44.0735 244.116 44.0735 247.591C44.0735 251.236 44.9683 254.819 46.6706 257.991C48.373 261.163 50.8249 263.816 53.7877 265.692L80.8028 282.791Z" fill="#F3F3F3"/>
<path d="M205.683 259.542C199.061 256.049 193.491 250.68 189.599 244.036C185.707 237.392 183.645 229.736 183.645 221.926V205.296L205.683 201.421L227.72 205.296V221.926C227.72 229.736 225.658 237.392 221.766 244.036C217.874 250.68 212.305 256.049 205.683 259.542Z" fill="#FAD23C"/>
<path d="M337.908 601.947V577.512C337.803 548.656 329.277 520.533 313.49 496.967C297.703 473.402 275.42 455.536 249.67 445.799C249.728 444.937 249.647 444.07 249.431 443.236C249.137 442.238 248.654 441.313 248.013 440.516C247.371 439.718 246.584 439.066 245.697 438.598L220.374 425.24V423.89C229.536 417.583 237.39 409.381 243.462 399.781C249.534 390.18 253.697 379.381 255.7 368.035H257.103C263.131 368.063 269.02 366.126 273.965 362.489C278.909 358.852 282.668 353.692 284.727 347.716C286.786 341.739 287.045 335.238 285.469 329.1C283.892 322.962 280.556 317.488 275.918 313.427C279.398 305.975 281.577 297.923 282.351 289.656C283.258 289.203 284.066 288.556 284.725 287.758C285.383 286.959 285.878 286.026 286.178 285.016C292.555 262.495 290.205 238.225 279.642 217.53C269.08 196.835 251.168 181.405 229.836 174.624C205.823 166.99 180.507 165.059 155.703 168.967C130.899 172.875 107.223 182.527 86.3732 197.229L48.9093 223.577C45.0705 226.277 41.9414 229.958 39.813 234.276C37.6847 238.595 36.6263 243.411 36.7362 248.277C36.8462 253.143 38.121 257.9 40.4419 262.107C42.7629 266.314 46.0547 269.833 50.0112 272.337L69.9309 284.945C70.2238 294.839 72.5256 304.551 76.681 313.427C72.0432 317.488 68.7078 322.962 67.131 329.1C65.5542 335.237 65.813 341.739 67.872 347.715C69.9309 353.691 73.6896 358.851 78.6339 362.488C83.5782 366.125 89.4669 368.062 95.4945 368.035H96.8983C98.901 379.381 103.064 390.18 109.136 399.781C115.208 409.381 123.062 417.583 132.224 423.89V425.24L106.9 438.598C106.014 439.066 105.227 439.718 104.585 440.516C103.944 441.313 103.461 442.238 103.167 443.236C102.951 444.07 102.87 444.937 102.928 445.799C77.1781 455.536 54.8952 473.402 39.108 496.967C23.3208 520.533 14.7952 548.656 14.6901 577.512V601.947C9.79078 603.765 5.65971 607.353 3.02902 612.077C0.398323 616.801 -0.562092 622.355 0.317993 627.755C1.19808 633.154 3.86182 638.051 7.83712 641.576C11.8124 645.102 16.8425 647.029 22.0359 647.016H330.562C335.755 647.029 340.786 645.102 344.761 641.576C348.736 638.051 351.4 633.154 352.28 627.755C353.16 622.355 352.2 616.801 349.569 612.077C346.938 607.353 342.807 603.765 337.908 601.947ZM323.216 577.512V600.519H293.833V554.022C293.833 551.967 293.059 549.996 291.681 548.542C290.304 547.089 288.435 546.272 286.487 546.272C284.539 546.272 282.67 547.089 281.293 548.542C279.915 549.996 279.141 551.967 279.141 554.022V631.517H183.645V498.621L199.947 520.118C200.635 521.025 201.508 521.757 202.501 522.26C203.494 522.763 204.581 523.024 205.682 523.024C205.887 523.025 206.092 523.015 206.296 522.994C207.498 522.89 208.657 522.474 209.67 521.784C210.683 521.094 211.519 520.15 212.103 519.036L243.263 459.866C266.52 468.29 286.713 484.143 301.041 505.225C315.368 526.307 323.119 551.572 323.216 577.512ZM176.299 464.419L152.191 433.9C167.889 439.073 184.709 439.073 200.407 433.9L176.299 464.419ZM204.58 501.41L185.787 476.627L214.95 439.71L232.268 448.844L204.58 501.41ZM257.103 352.536V321.538C261 321.538 264.737 323.171 267.492 326.078C270.247 328.984 271.795 332.926 271.795 337.037C271.795 341.148 270.247 345.09 267.492 347.996C264.737 350.903 261 352.536 257.103 352.536ZM257.103 306.039V290.54H267.583C266.78 296.142 265.145 301.575 262.739 306.64C260.883 306.249 258.996 306.047 257.103 306.039ZM51.4194 247.593C51.4161 245.393 51.9294 243.226 52.9133 241.286C53.8972 239.346 55.3212 237.693 57.058 236.475L94.5219 210.127C113.571 196.688 135.205 187.867 157.869 184.295C180.534 180.724 203.667 182.492 225.607 189.472C242.316 194.783 256.517 206.536 265.384 222.392C274.251 238.248 277.134 257.044 273.46 275.041H82.8347L57.5649 259.05C55.695 257.857 54.1475 256.176 53.0712 254.17C51.9949 252.163 51.4261 249.898 51.4194 247.593ZM85.0149 290.54H95.4945V306.039C93.6019 306.047 91.7146 306.249 89.8588 306.64C87.4528 301.575 85.8182 296.142 85.0149 290.54ZM80.8028 337.037C80.8073 332.928 82.3566 328.988 85.1108 326.083C87.8651 323.177 91.5994 321.543 95.4945 321.538V352.536C91.5994 352.531 87.8651 350.897 85.1108 347.991C82.3566 345.086 80.8073 341.146 80.8028 337.037ZM110.186 352.536V290.54H242.412V352.536C242.412 371.033 235.446 388.773 223.048 401.853C210.649 414.933 193.833 422.281 176.299 422.281C158.765 422.281 141.949 414.933 129.55 401.853C117.152 388.773 110.186 371.033 110.186 352.536ZM137.651 439.71L166.814 476.627L148.017 501.41L120.33 448.844L137.651 439.71ZM14.6901 623.767C14.6918 621.712 15.4663 619.742 16.8436 618.289C18.2208 616.837 20.0882 616.02 22.0359 616.018H58.7652V631.517H22.0359C20.0882 631.515 18.2208 630.698 16.8436 629.245C15.4663 627.792 14.6918 625.822 14.6901 623.767ZM73.4569 554.022C73.4569 551.967 72.683 549.996 71.3054 548.542C69.9278 547.089 68.0593 546.272 66.1111 546.272C64.1628 546.272 62.2944 547.089 60.9168 548.542C59.5392 549.996 58.7652 551.967 58.7652 554.022V600.519H29.3818V577.512C29.4794 551.572 37.2298 526.307 51.5572 505.225C65.8847 484.143 86.0783 468.29 109.335 459.866L140.495 519.037C141.079 520.15 141.914 521.093 142.926 521.784C143.939 522.474 145.097 522.89 146.298 522.995C146.504 523.016 146.709 523.026 146.916 523.024C148.017 523.024 149.104 522.763 150.097 522.26C151.09 521.757 151.963 521.025 152.651 520.118L168.953 498.621V631.517H73.4569V554.022ZM330.562 631.517H293.833V616.018H330.562C332.51 616.018 334.379 616.834 335.756 618.287C337.134 619.741 337.908 621.712 337.908 623.767C337.908 625.822 337.134 627.794 335.756 629.247C334.379 630.7 332.51 631.517 330.562 631.517Z" fill="black"/>
<path d="M139.57 329.288C143.627 329.288 146.916 325.818 146.916 321.538C146.916 317.258 143.627 313.789 139.57 313.789C135.513 313.789 132.224 317.258 132.224 321.538C132.224 325.818 135.513 329.288 139.57 329.288Z" fill="black"/>
<path d="M213.028 329.288C217.085 329.288 220.374 325.818 220.374 321.538C220.374 317.258 217.085 313.789 213.028 313.789C208.971 313.789 205.682 317.258 205.682 321.538C205.682 325.818 208.971 329.288 213.028 329.288Z" fill="black"/>
<path d="M132.224 538.523H95.4945C93.5463 538.523 91.6778 539.339 90.3002 540.793C88.9226 542.246 88.1487 544.217 88.1487 546.272V608.268C88.1487 610.323 88.9226 612.295 90.3002 613.748C91.6778 615.201 93.5463 616.018 95.4945 616.018H132.224C134.172 616.018 136.041 615.201 137.418 613.748C138.796 612.295 139.57 610.323 139.57 608.268V546.272C139.57 544.217 138.796 542.246 137.418 540.793C136.041 539.339 134.172 538.523 132.224 538.523ZM124.878 600.519H102.84V554.022H124.878V600.519Z" fill="black"/>
<path d="M220.374 538.523C218.426 538.523 216.557 539.339 215.18 540.793C213.802 542.246 213.028 544.217 213.028 546.272V608.268C213.028 610.323 213.802 612.295 215.18 613.748C216.557 615.201 218.426 616.018 220.374 616.018H257.103C259.052 616.018 260.92 615.201 262.298 613.748C263.675 612.295 264.449 610.323 264.449 608.268V546.272C264.449 544.217 263.675 542.246 262.298 540.793C260.92 539.339 259.052 538.523 257.103 538.523H220.374ZM249.758 600.519H227.72V554.022H249.758V600.519Z" fill="black"/>
<path d="M202.397 266.474C203.417 267.012 204.542 267.292 205.683 267.292C206.823 267.292 207.948 267.012 208.968 266.474C216.83 262.362 223.441 256.008 228.054 248.134C232.667 240.26 235.096 231.179 235.066 221.923V205.296C235.067 203.462 234.45 201.687 233.327 200.287C232.203 198.887 230.644 197.954 228.929 197.653L206.892 193.778C206.091 193.642 205.274 193.642 204.473 193.778L182.436 197.653C180.721 197.954 179.162 198.887 178.039 200.287C176.915 201.687 176.298 203.462 176.299 205.296V221.923C176.269 231.179 178.698 240.26 183.311 248.134C187.924 256.008 194.536 262.362 202.397 266.474ZM190.991 211.858L205.683 209.277L220.374 211.858V221.923C220.394 227.622 219.06 233.235 216.493 238.25C213.927 243.265 210.21 247.521 205.683 250.63C201.155 247.522 197.439 243.266 194.872 238.251C192.306 233.237 190.971 227.624 190.991 221.926V211.858Z" fill="black"/>
<path d="M176.299 368.035C178.247 368.035 180.116 367.218 181.493 365.765C182.871 364.312 183.645 362.341 183.645 360.285V344.786C183.645 342.731 182.871 340.76 181.493 339.307C180.116 337.853 178.247 337.037 176.299 337.037C174.351 337.037 172.482 337.853 171.105 339.307C169.727 340.76 168.953 342.731 168.953 344.786V360.285C168.953 362.341 169.727 364.312 171.105 365.765C172.482 367.218 174.351 368.035 176.299 368.035Z" fill="black"/>
<path d="M161 391.346C161 393.294 161.816 395.163 163.27 396.54C164.723 397.918 166.694 398.692 168.749 398.692H184.248C186.304 398.692 188.275 397.918 189.728 396.54C191.181 395.163 191.998 393.294 191.998 391.346C191.998 389.398 191.181 387.529 189.728 386.152C188.275 384.774 186.304 384 184.248 384H168.749C166.694 384 164.723 384.774 163.27 386.152C161.816 387.529 161 389.398 161 391.346Z" fill="black"/>
<rect x="263" y="467" width="16" height="148" fill="#35488A"/>
<rect x="273" y="467" width="7" height="148" fill="#E74C3C"/>
<rect x="259" y="468" width="7" height="148" fill="#E74C3C"/>
<path d="M239.98 501.808C246.34 503.991 253.222 503.804 259.113 501.288C265.003 498.773 269.419 494.135 271.389 488.394L286.247 445.106C288.218 439.365 287.581 432.993 284.477 427.39C281.373 421.787 276.056 417.414 269.696 415.231C263.336 413.048 256.454 413.235 250.563 415.75C244.673 418.266 240.257 422.904 238.287 428.644L223.429 471.933C221.459 477.673 222.095 484.046 225.199 489.648C228.303 495.251 233.62 499.625 239.98 501.808Z" fill="#35488A"/>
<path d="M282.729 454.733L272.549 474.715L224 449.982L234.18 430L282.729 454.733Z" fill="#C0D563"/>
<path d="M259.53 90.7143H200.286V31.4696C200.286 16.9143 188.061 5 173.5 5C158.939 5 146.714 16.9143 146.714 31.4696V90.7143H87.4696C72.9143 90.7143 61 102.939 61 117.5C61 132.061 72.9143 144.286 87.4696 144.286H146.714V203.53C146.714 218.086 158.939 230 173.5 230C188.061 230 200.286 218.086 200.286 203.53V144.286H259.53C274.086 144.286 286 132.061 286 117.5C286 102.939 274.086 90.7143 259.53 90.7143Z" fill="#46B64B" stroke="black" stroke-width="10"/>
<path d="M174 470.99L174 853.01" stroke="black" stroke-width="19"/>
<circle cx="174" cy="823" r="42.5" fill="#E74C3C" stroke="black" stroke-width="15"/>
</svg>
