<svg width="354" height="708" viewBox="0 0 354 708" fill="none" xmlns="http://www.w3.org/2000/svg">
<path d="M176 276.31C253.074 276.31 315.53 338.792 315.53 415.84C315.53 428.331 309.639 447.543 298.338 472.15C287.295 496.194 272.031 523.443 255.297 551.31C240.177 576.49 224.042 601.873 208.969 625.587C207.379 628.088 205.8 630.571 204.236 633.033C194.004 649.143 184.324 664.449 176.015 678.157C167.963 664.813 158.523 649.742 148.495 633.782C147.278 631.845 146.052 629.895 144.817 627.93C129.507 603.575 112.917 577.181 97.3476 551.029C80.5013 522.731 65.0608 495.062 53.8708 470.921C42.3691 446.107 36.47 427.284 36.47 415.84C36.47 338.794 98.9542 276.31 176 276.31ZM260.07 410.02C260.07 363.703 222.331 325.97 176 325.97C129.694 325.97 91.96 363.707 91.96 410.02C91.96 456.324 129.696 494.06 176 494.06C222.33 494.06 260.07 456.328 260.07 410.02Z" fill="#E74C3C" stroke="black" stroke-width="30"/>
<path d="M331.263 464.517H22.7372V410.512C22.7371 376.868 34.893 344.488 56.7295 319.967C78.5659 295.447 108.441 280.628 140.271 278.529H213.73C245.56 280.628 275.435 295.447 297.271 319.967C319.107 344.488 331.263 376.868 331.263 410.512V464.517Z" fill="#9DB142"/>
<path d="M331.263 441.268H22.7368C14.6227 441.268 8.04504 448.207 8.04504 456.767C8.04504 465.327 14.6227 472.266 22.7368 472.266H331.263C339.377 472.266 345.955 465.327 345.955 456.767C345.955 448.207 339.377 441.268 331.263 441.268Z" fill="#C0D563"/>
<path d="M140.271 239.782H213.729V317.277H140.271V239.782Z" fill="#EBBEAA"/>
<path d="M103.542 115.791H250.459V185.536C250.459 206.089 242.719 225.8 228.943 240.333C215.167 254.866 196.483 263.03 177 263.03C157.518 263.03 138.833 254.866 125.057 240.333C111.281 225.8 103.542 206.089 103.542 185.536V115.791Z" fill="#F1C8B4"/>
<path d="M96.1955 146.789H103.541V193.285H96.1955C90.3508 193.285 84.7455 190.836 80.6126 186.476C76.4798 182.116 74.158 176.203 74.158 170.037C74.158 163.871 76.4798 157.958 80.6126 153.598C84.7455 149.238 90.3508 146.789 96.1955 146.789Z" fill="#EBBEAA"/>
<path d="M250.458 146.789H257.804C263.649 146.789 269.254 149.238 273.387 153.598C277.52 157.958 279.842 163.871 279.842 170.037C279.842 176.203 277.52 182.116 273.387 186.476C269.254 190.836 263.649 193.285 257.804 193.285H250.458V146.789Z" fill="#EBBEAA"/>
<path d="M287.188 363.774V472.266H66.812V363.774" fill="#9DB142"/>
<path d="M96.1954 379.272H132.925V441.268H96.1954V379.272Z" fill="#C0D563"/>
<path d="M221.075 379.272H257.804V441.268H221.075V379.272Z" fill="#C0D563"/>
<path d="M177 309.527L147.617 348.275L110.887 278.529L140.271 263.031L177 309.527Z" fill="#C0D563"/>
<path d="M177 309.527L206.383 348.275L243.113 278.529L213.729 263.031L177 309.527Z" fill="#C0D563"/>
<path d="M81.5038 115.791H279.842C282.736 105.614 283.702 94.9355 282.684 84.365C281.667 73.7945 278.685 63.5389 273.91 54.184C269.135 44.8291 262.66 36.5579 254.855 29.8429C247.05 23.1279 238.068 18.1005 228.421 15.0477C205.441 7.77497 181.223 5.94271 157.495 9.68169C133.766 13.4207 111.113 22.6387 91.1504 36.678L53.6865 63.0262C50.9452 64.9538 48.6974 67.5656 47.1427 70.6298C45.5881 73.6939 44.7746 77.1156 44.7745 80.5911C44.7746 84.2362 45.6694 87.8192 47.3717 90.9911C49.074 94.1631 51.5259 96.816 54.4887 98.6916L81.5038 115.791Z" fill="#777F28"/>
<path d="M206.384 92.5424C199.762 89.0494 194.192 83.6801 190.3 77.0362C186.408 70.3922 184.346 62.7361 184.346 54.9257V38.2961L206.384 34.4214L228.421 38.2961V54.9257C228.421 62.7361 226.359 70.3922 222.467 77.0362C218.575 83.6801 213.006 89.0494 206.384 92.5424V92.5424Z" fill="#FAD23C"/>
<path d="M338.609 434.947V410.512C338.504 381.656 329.978 353.533 314.191 329.967C298.404 306.402 276.121 288.536 250.371 278.799C250.429 277.937 250.348 277.07 250.132 276.236C249.838 275.238 249.355 274.313 248.714 273.515C248.072 272.718 247.285 272.066 246.399 271.598L221.075 258.24V256.89C230.237 250.583 238.091 242.381 244.163 232.781C250.235 223.181 254.398 212.381 256.401 201.035H257.804C263.832 201.063 269.721 199.126 274.666 195.489C279.61 191.852 283.369 186.692 285.428 180.716C287.487 174.739 287.746 168.238 286.17 162.1C284.593 155.962 281.257 150.488 276.619 146.427C280.099 138.975 282.278 130.923 283.052 122.656C283.959 122.203 284.767 121.556 285.426 120.758C286.084 119.959 286.579 119.026 286.879 118.016C293.256 95.4949 290.906 71.2253 280.344 50.5304C269.781 29.8354 251.869 14.405 230.537 7.6237C206.524 -0.00962839 181.208 -1.94145 156.404 1.96684C131.601 5.87513 107.924 15.5266 87.0742 30.2289L49.6103 56.5771C45.7715 59.2772 42.6424 62.9577 40.5141 67.2762C38.3857 71.5947 37.3273 76.4109 37.4373 81.2769C37.5472 86.1428 38.822 90.9004 41.143 95.107C43.464 99.3136 46.7558 102.833 50.7122 105.337L70.632 117.945C70.9248 127.839 73.2267 137.552 77.3821 146.427C72.7442 150.488 69.4088 155.962 67.832 162.1C66.2553 168.237 66.514 174.739 68.573 180.715C70.632 186.691 74.3906 191.851 79.335 195.488C84.2793 199.125 90.1679 201.062 96.1956 201.035H97.5994C99.6021 212.381 103.765 223.181 109.837 232.781C115.909 242.381 123.763 250.583 132.925 256.89V258.24L107.601 271.598C106.715 272.066 105.928 272.718 105.286 273.515C104.645 274.313 104.162 275.238 103.868 276.236C103.652 277.07 103.571 277.937 103.629 278.799C77.8792 288.536 55.5962 306.402 39.809 329.967C24.0218 353.533 15.4962 381.656 15.3911 410.512V434.947C10.4918 436.765 6.36076 440.353 3.73007 445.077C1.09937 449.801 0.138958 455.355 1.01904 460.755C1.89913 466.154 4.56287 471.05 8.53817 474.576C12.5135 478.102 17.5436 480.029 22.737 480.016H331.263C336.456 480.029 341.487 478.102 345.462 474.576C349.437 471.05 352.101 466.154 352.981 460.755C353.861 455.355 352.901 449.801 350.27 445.077C347.639 440.353 343.508 436.765 338.609 434.947V434.947ZM323.917 410.512V433.519H294.534V387.022C294.534 384.967 293.76 382.996 292.382 381.542C291.005 380.089 289.136 379.272 287.188 379.272C285.24 379.272 283.371 380.089 281.994 381.542C280.616 382.996 279.842 384.967 279.842 387.022V464.517H184.346V331.621L200.648 353.118C201.336 354.025 202.209 354.757 203.202 355.26C204.195 355.763 205.282 356.024 206.383 356.024C206.588 356.025 206.793 356.015 206.997 355.994C208.199 355.89 209.358 355.474 210.371 354.784C211.384 354.094 212.22 353.15 212.804 352.036L243.964 292.866C267.221 301.29 287.414 317.143 301.742 338.225C316.069 359.307 323.82 384.572 323.917 410.512ZM177 297.419L152.892 266.9C168.59 272.073 185.41 272.073 201.108 266.9L177 297.419ZM205.282 334.41L186.488 309.627L215.651 272.71L232.969 281.844L205.282 334.41ZM257.804 185.536V154.538C261.701 154.538 265.438 156.171 268.193 159.078C270.948 161.984 272.496 165.926 272.496 170.037C272.496 174.148 270.948 178.09 268.193 180.996C265.438 183.903 261.701 185.536 257.804 185.536ZM257.804 139.039V123.54H268.284C267.481 129.142 265.846 134.575 263.44 139.64C261.584 139.249 259.697 139.047 257.804 139.039V139.039ZM52.1204 80.5927C52.1172 78.3925 52.6304 76.2257 53.6143 74.2858C54.5983 72.3459 56.0222 70.6932 57.7591 69.4753L95.223 43.1271C114.272 29.6883 135.906 20.8665 158.57 17.2952C181.235 13.7239 204.368 15.4917 226.308 22.4717C243.017 27.7828 257.218 39.5357 266.085 55.3917C274.952 71.2477 277.835 90.0444 274.161 108.041H83.5357L58.266 92.0502C56.396 90.8569 54.8485 89.1762 53.7723 87.1696C52.696 85.1631 52.1271 82.8982 52.1204 80.5927V80.5927ZM85.716 123.54H96.1956V139.039C94.303 139.047 92.4156 139.249 90.5598 139.64C88.1539 134.575 86.5192 129.142 85.716 123.54V123.54ZM81.5038 170.037C81.5083 165.928 83.0576 161.988 85.8119 159.083C88.5661 156.177 92.3005 154.543 96.1956 154.538V185.536C92.3005 185.531 88.5661 183.897 85.8119 180.991C83.0576 178.086 81.5083 174.146 81.5038 170.037V170.037ZM110.887 185.536V123.54H243.113V185.536C243.113 204.033 236.147 221.773 223.749 234.853C211.35 247.933 194.534 255.281 177 255.281C159.466 255.281 142.65 247.933 130.251 234.853C117.853 221.773 110.887 204.033 110.887 185.536V185.536ZM138.352 272.71L167.515 309.627L148.718 334.41L121.031 281.844L138.352 272.71ZM15.3911 456.767C15.3929 454.712 16.1674 452.742 17.5446 451.289C18.9218 449.837 20.7893 449.02 22.737 449.018H59.4663V464.517H22.737C20.7893 464.515 18.9218 463.698 17.5446 462.245C16.1674 460.792 15.3929 458.822 15.3911 456.767V456.767ZM74.158 387.022C74.158 384.967 73.3841 382.996 72.0064 381.542C70.6288 380.089 68.7604 379.272 66.8121 379.272C64.8639 379.272 62.9954 380.089 61.6178 381.542C60.2402 382.996 59.4663 384.967 59.4663 387.022V433.519H30.0828V410.512C30.1804 384.572 37.9309 359.307 52.2583 338.225C66.5857 317.143 86.7793 301.29 110.036 292.866L141.196 352.037C141.78 353.15 142.615 354.093 143.627 354.784C144.64 355.474 145.798 355.89 147 355.995C147.205 356.016 147.411 356.026 147.617 356.024C148.718 356.024 149.805 355.763 150.798 355.26C151.791 354.757 152.664 354.025 153.352 353.118L169.654 331.621V464.517H74.158V387.022ZM331.263 464.517H294.534V449.018H331.263C333.211 449.018 335.08 449.834 336.457 451.287C337.835 452.741 338.609 454.712 338.609 456.767C338.609 458.822 337.835 460.794 336.457 462.247C335.08 463.7 333.211 464.517 331.263 464.517Z" fill="black"/>
<path d="M140.271 162.288C144.328 162.288 147.617 158.818 147.617 154.538C147.617 150.258 144.328 146.789 140.271 146.789C136.214 146.789 132.925 150.258 132.925 154.538C132.925 158.818 136.214 162.288 140.271 162.288Z" fill="black"/>
<path d="M213.729 162.288C217.786 162.288 221.075 158.818 221.075 154.538C221.075 150.258 217.786 146.789 213.729 146.789C209.672 146.789 206.383 150.258 206.383 154.538C206.383 158.818 209.672 162.288 213.729 162.288Z" fill="black"/>
<path d="M132.925 371.523H96.1956C94.2473 371.523 92.3789 372.339 91.0013 373.793C89.6237 375.246 88.8497 377.217 88.8497 379.272V441.268C88.8497 443.323 89.6237 445.295 91.0013 446.748C92.3789 448.201 94.2473 449.018 96.1956 449.018H132.925C134.873 449.018 136.742 448.201 138.119 446.748C139.497 445.295 140.271 443.323 140.271 441.268V379.272C140.271 377.217 139.497 375.246 138.119 373.793C136.742 372.339 134.873 371.523 132.925 371.523ZM125.579 433.519H103.541V387.022H125.579V433.519Z" fill="black"/>
<path d="M221.075 371.523C219.127 371.523 217.258 372.339 215.881 373.793C214.503 375.246 213.729 377.217 213.729 379.272V441.268C213.729 443.323 214.503 445.295 215.881 446.748C217.258 448.201 219.127 449.018 221.075 449.018H257.804C259.753 449.018 261.621 448.201 262.999 446.748C264.376 445.295 265.15 443.323 265.15 441.268V379.272C265.15 377.217 264.376 375.246 262.999 373.793C261.621 372.339 259.753 371.523 257.804 371.523H221.075ZM250.459 433.519H228.421V387.022H250.459V433.519Z" fill="black"/>
<path d="M203.098 99.4742C204.118 100.012 205.243 100.292 206.384 100.292C207.524 100.292 208.649 100.012 209.669 99.4742C217.531 95.362 224.142 89.0085 228.755 81.134C233.368 73.2595 235.797 64.1792 235.767 54.9225V38.2961C235.768 36.4617 235.151 34.6867 234.028 33.287C232.904 31.8873 231.346 30.9538 229.63 30.6528L207.593 26.778C206.792 26.6417 205.975 26.6417 205.174 26.778L183.137 30.6528C181.422 30.9538 179.863 31.8873 178.74 33.287C177.616 34.6867 176.999 36.4617 177 38.2961V54.9225C176.97 64.1792 179.399 73.2595 184.012 81.134C188.625 89.0085 195.237 95.362 203.098 99.4742V99.4742ZM191.692 44.8575L206.384 42.277L221.075 44.8575V54.9225C221.095 60.6216 219.761 66.2351 217.195 71.25C214.628 76.2649 210.911 80.5214 206.384 83.6304C201.856 80.5217 198.14 76.2657 195.573 71.2514C193.007 66.237 191.672 60.6242 191.692 54.9256V44.8575Z" fill="black"/>
<path d="M177 201.035C178.948 201.035 180.817 200.218 182.194 198.765C183.572 197.312 184.346 195.341 184.346 193.285V177.786C184.346 175.731 183.572 173.76 182.194 172.307C180.817 170.853 178.948 170.037 177 170.037C175.052 170.037 173.183 170.853 171.806 172.307C170.428 173.76 169.654 175.731 169.654 177.786V193.285C169.654 195.341 170.428 197.312 171.806 198.765C173.183 200.218 175.052 201.035 177 201.035Z" fill="black"/>
<path d="M197.775 226.349C199.118 224.889 199.863 222.929 199.848 220.895C199.833 218.86 199.061 216.913 197.697 215.474C196.333 214.035 194.487 213.22 192.558 213.204C190.63 213.189 188.772 213.974 187.388 215.391C184.59 218.211 180.869 219.784 177 219.784C173.131 219.784 169.41 218.211 166.612 215.391C165.228 213.974 163.37 213.189 161.442 213.204C159.513 213.22 157.667 214.035 156.303 215.474C154.939 216.913 154.167 218.86 154.152 220.895C154.137 222.929 154.882 224.889 156.225 226.349C158.952 229.231 162.19 231.516 165.755 233.076C169.319 234.636 173.141 235.439 177 235.439C180.859 235.439 184.681 234.636 188.245 233.076C191.81 231.516 195.048 229.231 197.775 226.349V226.349Z" fill="black"/>
</svg>
