<svg xmlns="http://www.w3.org/2000/svg" version="1.1" xmlns:xlink="http://www.w3.org/1999/xlink" xmlns:svgjs="http://svgjs.com/svgjs" width="512" height="512" x="0" y="0" viewBox="0 0 64 64" style="enable-background:new 0 0 512 512" xml:space="preserve" class=""><g><g id="Color_copy"><path d="m33 50.949c8.179-.429 14.973-6.05 17.193-13.62-.708.108-1.425.186-2.152.233-2.202 6.341-8.056 10.978-15.041 11.387v-5c4.268-.355 7.897-2.953 9.724-6.606-.691-.103-1.371-.239-2.042-.397-1.567 2.74-4.39 4.674-7.682 5.003v-8.251c-1.248-.797-2.423-1.698-3.507-2.698h-7.443c.227-2.278 1.227-4.328 2.726-5.897-.346-.599-.67-1.212-.967-1.841-2.105 1.975-3.506 4.692-3.759 7.738h-5c.308-5.252 3.011-9.856 7.025-12.758-.162-.703-.295-1.417-.396-2.141-4.939 3.215-8.301 8.651-8.628 14.899h-6.014c-.013.333-.037.664-.037 1 0 .335.012.668.025 1h6.025c.508 9.677 8.273 17.442 17.95 17.949v6.025c.332.014.665.026 1 .026.337 0 .666-.033 1-.046zm-2-2c-8.575-.502-15.447-7.374-15.949-15.949h5c.484 5.819 5.13 10.466 10.949 10.949zm0-7c-4.717-.471-8.479-4.232-8.949-8.949h8.949z" fill="#83ae9b" data-original="#83ae9b"></path><g><circle cx="32" cy="32" fill="#d0d8da" r="29" data-original="#d0d8da"></circle><path d="m46.433 37.619c-13.807 0-25-11.193-25-25 0-2.842.481-5.57 1.355-8.116-11.499 3.851-19.788 14.702-19.788 27.497 0 16.016 12.984 29 29 29 15.699 0 28.475-12.476 28.976-28.053-4.098 2.937-9.116 4.672-14.543 4.672z" fill="#b8bebf" data-original="#b8bebf"></path><circle cx="32" cy="32" fill="#61947d" r="25" data-original="#61947d"></circle><path d="m49.678 14.322c-4.524-4.524-10.774-7.322-17.678-7.322v25z" fill="#ffc857" data-original="#ffc857"></path><path d="m46.433 37.619c-13.807 0-25-11.193-25-25 0-1.148.084-2.275.234-3.382-8.649 3.932-14.667 12.642-14.667 22.763 0 13.807 11.193 25 25 25 12.659 0 23.114-9.411 24.766-21.618-3.15 1.433-6.647 2.237-10.333 2.237z" fill="#517b68" data-original="#517b68"></path><g fill="#a9c7b9"><path d="m57 32c0-.335-.012-.668-.025-1h-6.025c-.235-4.484-2.024-8.553-4.847-11.688l4.105-4.105c.057-.057.088-.128.129-.194-.432-.467-.882-.916-1.349-1.349-.066.041-.137.072-.194.129l-4.105 4.105c-3.135-2.824-7.204-4.612-11.688-4.847v-6.026c-.333-.013-.666-.025-1.001-.025s-.668.012-1 .025v6.025c-9.677.508-17.442 8.273-17.949 17.95h-6.026c-.013.332-.025.665-.025 1s.012.668.025 1h6.025c.508 9.677 8.273 17.442 17.95 17.949v6.025c.332.014.665.026 1 .026s.668-.012 1-.025v-6.025c9.677-.508 17.442-8.273 17.949-17.95h6.025c.014-.332.026-.665.026-1zm-8.051-1h-5c-.213-2.558-1.226-4.888-2.795-6.741l3.534-3.534c2.465 2.77 4.031 6.342 4.261 10.275zm-15.949-8.949c2.008.2 3.842.998 5.324 2.211l-5.324 5.324zm-2 8.949h-8.949c.471-4.717 4.232-8.479 8.949-8.949zm0 2v8.949c-4.717-.471-8.479-4.232-8.949-8.949zm2 0h8.949c-.471 4.717-4.232 8.479-8.949 8.949zm1.414-2 5.324-5.324c1.213 1.482 2.011 3.316 2.211 5.324zm8.861-11.689-3.534 3.534c-1.852-1.569-4.183-2.582-6.741-2.795v-5c3.933.231 7.505 1.797 10.275 4.261zm-12.275-4.26v5c-5.819.483-10.466 5.13-10.949 10.949h-5c.502-8.575 7.374-15.447 15.949-15.949zm-15.949 17.949h5c.484 5.819 5.13 10.466 10.949 10.949v5c-8.575-.502-15.447-7.374-15.949-15.949zm17.949 15.949v-5c5.819-.483 10.466-5.13 10.949-10.949h5c-.502 8.575-7.374 15.447-15.949 15.949z" fill="#a9c7b9" data-original="#a9c7b9"></path><path d="m32 37c-2.757 0-5-2.243-5-5s2.243-5 5-5 5 2.243 5 5-2.243 5-5 5zm0-8c-1.654 0-3 1.346-3 3s1.346 3 3 3 3-1.346 3-3-1.346-3-3-3z" fill="#a9c7b9" data-original="#a9c7b9"></path></g><circle cx="32" cy="32" fill="#ffc857" r="4" data-original="#ffc857"></circle><circle cx="24.222" cy="39.778" fill="#ffb41f" r="2" data-original="#ffb41f"></circle><circle cx="32" cy="14" fill="#ffdd99" r="2" data-original="#ffdd99"></circle><circle cx="24.222" cy="24.222" fill="#ffc857" r="2" data-original="#ffc857"></circle><circle cx="48.943" cy="25.924" fill="#ffc857" r="2" data-original="#ffc857"></circle><g fill="#ffb41f"><circle cx="15.057" cy="38.076" r="2" fill="#ffb41f" data-original="#ffb41f"></circle><circle cx="44.728" cy="44.728" r="2" fill="#ffb41f" data-original="#ffb41f"></circle><path d="m32 36c1.127 0 2.141-.469 2.867-1.219-2.361-1.235-4.5-2.834-6.342-4.726-.324.578-.525 1.235-.525 1.945 0 2.209 1.791 4 4 4z" fill="#ffb41f" data-original="#ffb41f"></path><path d="m22.808 25.636c.669.668 1.691.76 2.461.284-.705-1.119-1.328-2.295-1.851-3.525-.221.097-.43.232-.61.412-.781.782-.781 2.048 0 2.829z" fill="#ffb41f" data-original="#ffb41f"></path></g></g></g></g></svg>